<?xml version="1.0" encoding="utf-8"?>
<!-- Generator: Adobe Illustrator 27.5.0, SVG Export Plug-In . SVG Version: 6.00 Build 0)  -->
<svg version="1.1" id="Layer_1" xmlns="http://www.w3.org/2000/svg" xmlns:xlink="http://www.w3.org/1999/xlink" x="0px" y="0px"
	 viewBox="0 0 390 378.134" style="enable-background:new 0 0 390 378.134;" xml:space="preserve">
<g>
	<g>
		<g>
			<path style="fill:#870000;" d="M364.213,20.024l-7.725-10.57l-59.061,52.605l7.725,10.57L315.341,76
				c-3.607,7.388-7.613,14.59-12.048,21.547c-8.205,12.82-17.824,24.81-28.66,35.765c-10.832,10.96-22.876,20.878-35.807,29.702
				c-12.931,8.828-26.741,16.568-41.118,23.299c-28.784,13.464-59.732,22.911-91.358,29.439
				c-31.661,6.503-64.056,10.128-96.6,11.581l7.725,10.571c32.548,1.428,65.318,0.699,97.966-3.038
				c32.618-3.776,65.183-10.571,96.607-21.994c15.696-5.717,31.084-12.609,45.858-20.879c14.77-8.264,28.922-17.919,42.034-29.017
				c13.112-11.089,25.17-23.62,35.792-37.361c8.548-11.089,16.13-22.956,22.755-35.342l21.763,7.199L364.213,20.024z"/>
		</g>
		<path style="fill:#DA1D23;" d="M372.525,86.902L356.487,9.453l-59.061,52.605l21.164,7.001
			c-4.404,9.831-9.484,19.367-15.298,28.487c-8.205,12.819-17.824,24.809-28.66,35.765c-10.833,10.96-22.876,20.878-35.807,29.702
			c-12.931,8.828-26.741,16.567-41.118,23.299c-28.784,13.464-59.732,22.911-91.358,29.439c-31.661,6.503-64.056,10.128-96.6,11.581
			c32.548,1.428,65.318,0.699,97.966-3.038c32.618-3.776,65.183-10.571,96.608-21.994c15.696-5.717,31.084-12.609,45.858-20.879
			c14.77-8.264,28.922-17.919,42.034-29.018c13.112-11.089,25.17-23.62,35.792-37.36c8.548-11.089,16.13-22.956,22.755-35.342
			L372.525,86.902z"/>
	</g>
	<g>
		<path d="M352.463,368.68h-40.99V181.86h0v186.82L352.463,368.68l7.573-4.009V127.071c-2.425,3.748-4.952,7.427-7.573,11.035
			V368.68z"/>
		<path d="M280.195,368.68l7.573-4.009V199.48c-2.501,1.649-5.026,3.251-7.573,4.813V368.68z"/>
		<path d="M207.927,368.68h-40.99v0L207.927,368.68l7.573-4.009V234.023c-2.519,0.839-5.042,1.655-7.573,2.438V368.68z"/>
		<path d="M135.659,368.68h-40.99v0L135.659,368.68l7.573-4.009v-113.83c-2.523,0.368-5.048,0.719-7.573,1.048V368.68z"/>
		<path d="M63.391,368.68h-40.99v0L63.391,368.68l7.573-4.009V256.458c-2.525,0.04-5.049,0.065-7.573,0.075V368.68z"/>
		<path style="fill:#EC008C;" d="M312.59,180.938c-0.369,0.313-0.747,0.612-1.118,0.922v186.82h40.99V138.105
			c-1.338,1.841-2.691,3.671-4.08,5.472C337.761,157.318,325.703,169.849,312.59,180.938z"/>
		<path style="fill:#39B54A;" d="M270.557,209.955c-10.191,5.704-20.678,10.738-31.352,15.198V368.68h40.99l0,0V204.293
			C277.013,206.244,273.803,208.139,270.557,209.955z"/>
		<path style="fill:#F15A29;" d="M207.927,236.461c-13.52,4.183-27.211,7.577-40.99,10.313V368.68h40.99V236.461z"/>
		<path style="fill:#00AEEF;" d="M135.659,251.89c-2.522,0.329-5.044,0.646-7.567,0.938c-11.131,1.274-22.277,2.191-33.423,2.799
			V368.68h40.99V251.89z"/>
		<path style="fill:#FFF200;" d="M63.391,256.534c-11.105,0.047-29.923-0.182-40.99-0.668V368.68h40.99V256.534z"/>
	</g>
</g>
</svg>
